<?xml version="1.0" encoding="UTF-8" standalone="no"?>
<svg
   viewBox="0 0 496.7627 489.91388"
   x="0px"
   y="0px"
   version="1.1"
   id="svg40"
   sodipodi:docname="crystal-ball.svg"
   width="496.7627"
   height="489.91388"
   inkscape:version="1.2.2 (b0a84865, 2022-12-01)"
   xmlns:inkscape="http://www.inkscape.org/namespaces/inkscape"
   xmlns:sodipodi="http://sodipodi.sourceforge.net/DTD/sodipodi-0.dtd"
   xmlns="http://www.w3.org/2000/svg"
   xmlns:svg="http://www.w3.org/2000/svg">
  <defs
     id="defs44" />
  <sodipodi:namedview
     id="namedview42"
     pagecolor="#ffffff"
     bordercolor="#000000"
     borderopacity="0.25"
     inkscape:showpageshadow="2"
     inkscape:pageopacity="0.0"
     inkscape:pagecheckerboard="0"
     inkscape:deskcolor="#d1d1d1"
     showgrid="false"
     inkscape:zoom="0.97098919"
     inkscape:cx="378.48001"
     inkscape:cy="386.71903"
     inkscape:window-width="1654"
     inkscape:window-height="1051"
     inkscape:window-x="74"
     inkscape:window-y="38"
     inkscape:window-maximized="0"
     inkscape:current-layer="svg40" />
  <path
     d="m 123.74488,373.30713 c 16.868,-17.825 38.507,-35.905 64.664,-33.271 26.367,2.472 52.676,-1.972 79,-3.314 8.091,-0.575 22.112,-2.462 27.757,4.565 1.483,3.076 0.346,7.089 -3,8.24 -19.56,7.184 -38.259,16.577 -58.527,21.233 -7.71,1.551 -16.012,2.481 -22.811,6.75 -3.77,2.366 -0.487,7.679 3.431,5.869 8.853,-4.087 18.483,-5.055 27.819,-7.472 15.885,-2.129 31.552,1.5 47.14,4.069 17.421,2.337 34.388,1.061 51.749,-0.812 8.285,-0.75 14.722,-6.721 19.663,-12.071 13.585,-11.739 37.733,-37.243 56.934,-25.122 -20.467,17.515 -40.562,35.5 -60.772,53.309 -5.089,4.485 -9.9,8.193 -16.575,9.967 -61.9,13.5 -133.686,1.911 -188.939,38.215 -16.429,12.241 -29.085,28.882 -46.22,40.236 -3.507,2.323 -0.214,8 3.31,5.662 19.586,-13.015 33.4,-33.128 53.614,-45.241 54.929,-28.723 119.357,-20.092 178.352,-32.142 11.313,-2.721 18.552,-10.314 26.909,-17.9 18.741,-17.022 38.4,-33.059 56.756,-50.507 a 2.385,2.385 0 0 0 0.758,-2.466 c -14.006,-19.077 -41.785,-2.227 -55.354,9.864 5.584,-10.948 13.231,-20.453 20.437,-30.3 1.4,-0.927 1.785,-3.26 0,-4.174 a 26.38,26.38 0 0 0 -19.615,-1.019 c 48.369,-91.6 -21.712,-206.97 -125.924,-205.526 -122.993,-1.033 -187.224005,150.35 -103.082,238.008 -36.275,28.889 -62.051005,69.213 -102.784005,92.73 -3.973,2.373 -0.372,8.556 3.63,6.21 31.976,-18.708 56.23,-47.26 81.680005,-73.59 z m 258.905,-52.206 c -9.079,10.107 -15.616,21.952 -21.656,33.963 a 43.745,43.745 0 0 1 -14.91,16.524 c -4,2.015 -8.882,2.1 -13.282,2.419 12.214,-20.932 19.924,-54.461 49.848,-52.906 z m -221.735,-121.95 c 12.1,-20.955 33.157,-31.446 47.035,-23.433 32.318,20.754 -9.7,93.5 -43.812,75.883 -13.878,-8.013 -15.321,-31.495 -3.223,-52.45 z"
     id="path2"
     style="fill:#6d0087;fill-opacity:1" />
  <path
     d="m 290.39088,65.786131 19.17,4.864 a 17.216,17.216 0 0 1 12.885,15.072 l 2.888,31.199999 c 0.343,4.176 6.56,4.546 7.356,0.392 l 5.808,-28.799999 a 17.262,17.262 0 0 1 14.126,-13.571 l 20.753,-3.327 c 3.97,-0.581 4.178,-6.5 0.213,-7.311 l -19.127,-4.216 a 17.2,17.2 0 0 1 -13.371,-14.789 l -2.75,-23.555 c -0.4,-3.914 -6.15,-4.471 -7.259,-0.651 l -6.8,22.335 a 17.28,17.28 0 0 1 -13.782,11.975 l -19.775,3.1 c -3.925,0.553 -4.206,6.362 -0.335,7.282 z m 21.267,-3.029 c 12.237,-2.1 18.707,-10.885 21.358,-22.44 0.523,13.123 6.414,23.832 19.857,27.042 -12.587,1.412 -21.081,11.3 -22.464,23.606 -0.307,-14.008 -6.232,-24.608 -20.558,-27.922 z"
     id="path4"
     style="fill:#d69800;fill-opacity:1" />
  <path
     d="m 37.610875,280.09113 6.929,30.559 c 0.885,4.1 7.1,3.652 7.345,-0.57 l 2,-29.314 a 17.263,17.263 0 0 1 12.238,-15.3 l 20.143,-6 c 3.86,-1.093 3.3,-6.985 -0.741,-7.276 l -19.514,-1.688 a 17.2,17.2 0 0 1 -15.183,-12.921 l -5.8,-23 c -0.906,-3.829 -6.68,-3.632 -7.282,0.3 l -3.819,23.037 a 17.283,17.283 0 0 1 -12.1,13.669 l -19.1999999,5.646 c -3.824,1.062 -3.34699997,6.859 0.612,7.267 l 19.6399999,2.325 a 17.216,17.216 0 0 1 14.732,13.266 z m -15.442,-20.846 c 12.637,-3.063 18.973,-13.121 20.007,-25.547 2.228,12.943 9.465,22.794 23.211,24.224 -12.3,3.04 -19.429,13.954 -19.2,26.332 -2.127,-13.851 -9.384,-23.589 -24.018,-25.009 z"
     id="path6"
     style="fill:#d69800;fill-opacity:1" />
  <path
     d="M 110.61788,114.17513 C 89.017875,92.775131 67.927875,70.648131 45.598875,50.014131 c -3.2,-2.961 -7.784,1.6 -4.791,4.791 20.8,22.178 43.077,43.109 64.633005,64.547999 3.345,3.326 8.53,-1.855 5.177,-5.178 z"
     id="path8"
     style="fill:#d69800;fill-opacity:1" />
  <path
     d="m 149.54088,62.397131 c -1.861,-2.272 -5,-0.179 -5.226,2.164 -0.53,5.442 2.749,11.834 4.662,16.836 2.068,5.406 4.1,11.251 7.159,16.18 2.184,3.522999 8.415,1.292 6.95,-2.93 -2,-5.78 -4.926,-11.267 -7.128,-16.989 -1.93,-5.018 -2.981,-11.068 -6.417,-15.261 z"
     id="path10"
     style="fill:#d69800;fill-opacity:1" />
  <path
     d="m 46.264875,150.49213 c -2.993,-0.991 -5.159,3.912 -2.182,5.176 12.454,5.289 25.127,10.05 37.747,14.926 4.13,1.595 6,-5.13 1.837,-6.661 -12.431,-4.576 -24.827,-9.276 -37.402,-13.441 z"
     id="path12"
     style="fill:#d69800;fill-opacity:1" />
  <path
     d="m 89.882875,322.13013 c -6.244,3.521 -11.846,8.848 -17.506,13.238 -2.894,2.243 -5.794,4.479 -8.677,6.736 -2.621,2.052 -5.65,3.467 -6.119,6.947 a 2.211,2.211 0 0 0 2.079,2.729 c 3.315,0.416 5.027,-1.667 7.575,-3.6 3.162,-2.395 6.306,-4.813 9.456,-7.225 5.692,-4.36 12.264,-8.417 17.261,-13.558 a 3.37,3.37 0 0 0 -4.069,-5.267 z"
     id="path14"
     style="fill:#d69800;fill-opacity:1" />
  <path
     d="m 236.27688,18.883131 c 0.117,-5.371 1.777,-12.7949996 -0.826,-17.6399996 a 2.586,2.586 0 0 0 -4.42,0 c -2.837,4.421 -1.706,11.6389996 -1.847,16.7309996 q -0.263,9.539 -0.354,19.08 -0.078,9.087 0.024,18.174 c 0.06,5.906 -0.959,13.379 1.005,18.984 a 3.088,3.088 0 0 0 5.9,0 c 1.61,-5.508 0.392,-12.366 0.326,-18.075 q -0.198,-18.627 0.192,-37.254 z"
     id="path16"
     style="fill:#d69800;fill-opacity:1" />
  <path
     d="m 373.96388,116.44513 c 19.023,-20.499999 37.825,-41.279999 58.978,-59.674999 3.371,-3.018 -1.605,-7.966 -4.962,-4.961 -20.792,19.032 -41.438,38.677 -58.893,60.872999 -2.143,2.852 2.464,6.235 4.877,3.763 z"
     id="path18"
     style="fill:#d69800;fill-opacity:1" />
  <path
     d="m 446.62088,149.64313 c 4.185,-1.5 2.367,-8.232 -1.848,-6.7 -11.385,4.126 -22.7,8.448 -33.877,13.117 -3.208,1.332 -6.905,2.311 -9.263,4.934 a 2.526,2.526 0 0 0 1.763,4.257 c 3.563,0.164 6.859,-1.772 10.123,-3.072 10.966,-4.357 21.991,-8.564 33.102,-12.536 z"
     id="path20"
     style="fill:#d69800;fill-opacity:1" />
  <path
     d="m 494.37688,240.82313 c 3.149,-0.622 3.213,-5.854 0,-6.429 -5.273,-0.943 -11.062,-0.334 -16.424,-0.452 -13.451,-0.3 -26.894,-0.9 -40.326,-1.653 -5.574,-0.317 -11.535,-1.442 -17.087,-1.038 a 3.388,3.388 0 0 0 -3.21,4.215 c 0.592,4.4 15.27,3.256 19.021,3.821 13.642,0.869 27.305,1.409 40.97,1.718 5.495,0.117 11.638,0.888 17.056,-0.182 z"
     id="path22"
     style="fill:#d69800;fill-opacity:1" />
  <path
     d="m 433.17688,311.14813 c -2.809,-1.624 -5.7,-3.172 -8.417,-4.943 -2.424,-1.579 -4.1,-4.056 -6.942,-4.765 a 2.606,2.606 0 0 0 -3.253,2.478 c -0.354,5.94 8.434,9.619 12.723,12.129 6.6,3.86 13.325,8.867 20.5,11.487 3.071,1.121 5.724,-3.439 3.233,-5.554 -5.195,-4.413 -11.944,-7.423 -17.844,-10.832 z"
     id="path24"
     style="fill:#d69800;fill-opacity:1" />
  <path
     d="m 15.359875,144.51413 c -0.958,5.279 6.869,6.834 8,1.592 0.961,-5.278 -6.865,-6.835 -8,-1.592 z"
     id="path26"
     style="fill:#6d0087;fill-opacity:1" />
  <path
     d="m 43.701875,366.56413 c 0.957,-5.279 -6.869,-6.835 -8,-1.592 -0.961,5.278 6.865,6.834 8,1.592 z"
     id="path28"
     style="fill:#d69800;fill-opacity:1" />
  <path
     d="m 132.77688,39.700131 c -0.957,5.279 6.87,6.835 8,1.592 0.963,-5.278 -6.863,-6.835 -8,-1.592 z"
     id="path30"
     style="fill:#d69800;fill-opacity:1" />
  <path
     d="m 473.20188,139.25713 c 0.956,-5.278 -6.87,-6.834 -8,-1.592 -0.962,5.282 6.864,6.838 8,1.592 z"
     id="path32"
     style="fill:#d69800;fill-opacity:1" />
  <path
     d="m 472.74188,337.24613 c 0.957,-5.278 -6.869,-6.834 -8,-1.592 -0.965,5.279 6.865,6.835 8,1.592 z"
     id="path34"
     style="fill:#d69800;fill-opacity:1" />
</svg>
